<mxfile host="app.diagrams.net" modified="2023-01-06T03:22:58.477Z" agent="5.0 (Windows NT 10.0; Win64; x64) AppleWebKit/537.36 (KHTML, like Gecko) Chrome/108.0.0.0 Safari/537.36" etag="W0xQH0f4srWV1Qoy0dJr" version="20.7.4" type="github">
  <diagram id="C5RBs43oDa-KdzZeNtuy" name="Page-1">
    <mxGraphModel dx="875" dy="431" grid="1" gridSize="10" guides="1" tooltips="1" connect="1" arrows="1" fold="1" page="1" pageScale="1" pageWidth="827" pageHeight="1169" math="0" shadow="0">
      <root>
        <mxCell id="WIyWlLk6GJQsqaUBKTNV-0" />
        <mxCell id="WIyWlLk6GJQsqaUBKTNV-1" parent="WIyWlLk6GJQsqaUBKTNV-0" />
        <mxCell id="yvMDREzffPp9P_JAuTgc-2" style="edgeStyle=orthogonalEdgeStyle;rounded=0;orthogonalLoop=1;jettySize=auto;html=1;entryX=0.5;entryY=0;entryDx=0;entryDy=0;" edge="1" parent="WIyWlLk6GJQsqaUBKTNV-1" source="WIyWlLk6GJQsqaUBKTNV-3" target="yvMDREzffPp9P_JAuTgc-0">
          <mxGeometry relative="1" as="geometry" />
        </mxCell>
        <mxCell id="WIyWlLk6GJQsqaUBKTNV-3" value="开始" style="rounded=1;whiteSpace=wrap;html=1;fontSize=12;glass=0;strokeWidth=1;shadow=0;" parent="WIyWlLk6GJQsqaUBKTNV-1" vertex="1">
          <mxGeometry x="170" y="90" width="105" height="30" as="geometry" />
        </mxCell>
        <mxCell id="yvMDREzffPp9P_JAuTgc-5" style="edgeStyle=orthogonalEdgeStyle;rounded=0;orthogonalLoop=1;jettySize=auto;html=1;entryX=0.5;entryY=0;entryDx=0;entryDy=0;" edge="1" parent="WIyWlLk6GJQsqaUBKTNV-1" source="yvMDREzffPp9P_JAuTgc-0" target="yvMDREzffPp9P_JAuTgc-4">
          <mxGeometry relative="1" as="geometry" />
        </mxCell>
        <mxCell id="yvMDREzffPp9P_JAuTgc-0" value="传输检索信息" style="rounded=0;whiteSpace=wrap;html=1;" vertex="1" parent="WIyWlLk6GJQsqaUBKTNV-1">
          <mxGeometry x="162.5" y="160" width="120" height="40" as="geometry" />
        </mxCell>
        <mxCell id="yvMDREzffPp9P_JAuTgc-7" style="edgeStyle=orthogonalEdgeStyle;rounded=0;orthogonalLoop=1;jettySize=auto;html=1;entryX=0;entryY=0.5;entryDx=0;entryDy=0;" edge="1" parent="WIyWlLk6GJQsqaUBKTNV-1" source="yvMDREzffPp9P_JAuTgc-4" target="yvMDREzffPp9P_JAuTgc-6">
          <mxGeometry relative="1" as="geometry" />
        </mxCell>
        <mxCell id="yvMDREzffPp9P_JAuTgc-9" style="edgeStyle=orthogonalEdgeStyle;rounded=0;orthogonalLoop=1;jettySize=auto;html=1;" edge="1" parent="WIyWlLk6GJQsqaUBKTNV-1" source="yvMDREzffPp9P_JAuTgc-4" target="yvMDREzffPp9P_JAuTgc-8">
          <mxGeometry relative="1" as="geometry" />
        </mxCell>
        <mxCell id="yvMDREzffPp9P_JAuTgc-4" value="判断用户权限" style="rhombus;whiteSpace=wrap;html=1;" vertex="1" parent="WIyWlLk6GJQsqaUBKTNV-1">
          <mxGeometry x="152.5" y="230" width="140" height="60" as="geometry" />
        </mxCell>
        <mxCell id="yvMDREzffPp9P_JAuTgc-14" style="edgeStyle=orthogonalEdgeStyle;rounded=0;orthogonalLoop=1;jettySize=auto;html=1;" edge="1" parent="WIyWlLk6GJQsqaUBKTNV-1" source="yvMDREzffPp9P_JAuTgc-6">
          <mxGeometry relative="1" as="geometry">
            <mxPoint x="230" y="400" as="targetPoint" />
            <Array as="points">
              <mxPoint x="390" y="400" />
            </Array>
          </mxGeometry>
        </mxCell>
        <mxCell id="yvMDREzffPp9P_JAuTgc-6" value="根据检索条件查询所有TR信息" style="rounded=0;whiteSpace=wrap;html=1;fontStyle=0" vertex="1" parent="WIyWlLk6GJQsqaUBKTNV-1">
          <mxGeometry x="340" y="240" width="120" height="40" as="geometry" />
        </mxCell>
        <mxCell id="yvMDREzffPp9P_JAuTgc-13" style="edgeStyle=orthogonalEdgeStyle;rounded=0;orthogonalLoop=1;jettySize=auto;html=1;entryX=0.5;entryY=0;entryDx=0;entryDy=0;" edge="1" parent="WIyWlLk6GJQsqaUBKTNV-1" source="yvMDREzffPp9P_JAuTgc-8" target="yvMDREzffPp9P_JAuTgc-12">
          <mxGeometry relative="1" as="geometry" />
        </mxCell>
        <mxCell id="yvMDREzffPp9P_JAuTgc-8" value="查询航司可见TR信息" style="rounded=0;whiteSpace=wrap;html=1;" vertex="1" parent="WIyWlLk6GJQsqaUBKTNV-1">
          <mxGeometry x="162.5" y="320" width="120" height="40" as="geometry" />
        </mxCell>
        <mxCell id="yvMDREzffPp9P_JAuTgc-10" value="商飞用户" style="text;html=1;align=center;verticalAlign=middle;resizable=0;points=[];autosize=1;strokeColor=none;fillColor=none;" vertex="1" parent="WIyWlLk6GJQsqaUBKTNV-1">
          <mxGeometry x="275" y="215" width="70" height="30" as="geometry" />
        </mxCell>
        <mxCell id="yvMDREzffPp9P_JAuTgc-11" value="航司用户" style="text;html=1;align=center;verticalAlign=middle;resizable=0;points=[];autosize=1;strokeColor=none;fillColor=none;" vertex="1" parent="WIyWlLk6GJQsqaUBKTNV-1">
          <mxGeometry x="222.5" y="290" width="70" height="30" as="geometry" />
        </mxCell>
        <mxCell id="yvMDREzffPp9P_JAuTgc-16" style="edgeStyle=orthogonalEdgeStyle;rounded=0;orthogonalLoop=1;jettySize=auto;html=1;entryX=0.5;entryY=0;entryDx=0;entryDy=0;" edge="1" parent="WIyWlLk6GJQsqaUBKTNV-1" source="yvMDREzffPp9P_JAuTgc-12" target="yvMDREzffPp9P_JAuTgc-15">
          <mxGeometry relative="1" as="geometry" />
        </mxCell>
        <mxCell id="yvMDREzffPp9P_JAuTgc-12" value="查询航司可见TR信息" style="rounded=0;whiteSpace=wrap;html=1;" vertex="1" parent="WIyWlLk6GJQsqaUBKTNV-1">
          <mxGeometry x="162.5" y="410" width="120" height="40" as="geometry" />
        </mxCell>
        <mxCell id="yvMDREzffPp9P_JAuTgc-18" style="edgeStyle=orthogonalEdgeStyle;rounded=0;orthogonalLoop=1;jettySize=auto;html=1;entryX=0.5;entryY=0;entryDx=0;entryDy=0;" edge="1" parent="WIyWlLk6GJQsqaUBKTNV-1" source="yvMDREzffPp9P_JAuTgc-15" target="yvMDREzffPp9P_JAuTgc-17">
          <mxGeometry relative="1" as="geometry" />
        </mxCell>
        <mxCell id="yvMDREzffPp9P_JAuTgc-15" value="组装数据返回前端展示" style="rounded=0;whiteSpace=wrap;html=1;" vertex="1" parent="WIyWlLk6GJQsqaUBKTNV-1">
          <mxGeometry x="162.5" y="480" width="120" height="40" as="geometry" />
        </mxCell>
        <mxCell id="yvMDREzffPp9P_JAuTgc-17" value="结束" style="rounded=1;whiteSpace=wrap;html=1;fontSize=12;glass=0;strokeWidth=1;shadow=0;" vertex="1" parent="WIyWlLk6GJQsqaUBKTNV-1">
          <mxGeometry x="170" y="550" width="105" height="30" as="geometry" />
        </mxCell>
      </root>
    </mxGraphModel>
  </diagram>
</mxfile>
